<svg id="Layer_5" enable-background="new 0 0 64 64" height="512" viewBox="0 0 64 64" width="512" xmlns="http://www.w3.org/2000/svg" xmlns:xlink="http://www.w3.org/1999/xlink"><linearGradient id="SVGID_1_" gradientUnits="userSpaceOnUse" x1="32" x2="32" y1="63" y2="1"><stop offset="0" stop-color="#9f2fff"/><stop offset="1" stop-color="#0bb1d3"/></linearGradient><path d="m58.98 36.962-1.999.076c-.127-3.355-.909-6.591-2.322-9.614l1.812-.848c1.528 3.268 2.371 6.762 2.509 10.386zm-1.98 4.038h2v-2h-2zm-10-19v2c-2.206 0-4 1.794-4 4h-2c0-2.206-1.794-4-4-4v-2c2.206 0 4-1.794 4-4h2c0 2.206 1.794 4 4 4zm-3.31 1c-.67-.445-1.245-1.02-1.69-1.69-.445.67-1.02 1.245-1.69 1.69.67.445 1.245 1.02 1.69 1.69.445-.67 1.02-1.245 1.69-1.69zm14.794-1.084c2.946 4.842 4.516 10.379 4.516 16.084v16c0 5.846-15.972 9-31 9s-31-3.154-31-9v-16c0-8.57 3.547-16.721 9.763-22.572-.534-.265-1.127-.428-1.763-.428v-2c2.206 0 4-1.794 4-4h2c0 .958.352 1.826.916 2.516 4.842-2.946 10.379-4.516 16.084-4.516 8.57 0 16.72 3.546 22.572 9.763.265-.534.428-1.127.428-1.763h2c0 2.206 1.794 4 4 4v2c-.958 0-1.827.352-2.516.916zm-2.484-3.606c-.445.67-1.02 1.245-1.69 1.69.67.445 1.245 1.02 1.69 1.69.445-.67 1.02-1.245 1.69-1.69-.67-.445-1.245-1.02-1.69-1.69zm-43.69-4.31c.67.445 1.245 1.02 1.69 1.69.445-.67 1.02-1.245 1.69-1.69-.67-.445-1.245-1.02-1.69-1.69-.445.67-1.02 1.245-1.69 1.69zm3.736 28.244c-8.944 1.523-13.046 4.009-13.046 5.756 0 2.923 11.033 7 29 7s29-4.077 29-7c0-1.844-4.436-4.431-14.106-5.926.004 1.541-.485 3.102-1.487 4.369-2.29 2.896-5.719 4.557-9.407 4.557-1.216 0-2.416-.183-3.564-.543-1.424-.444-3.529-.812-5.451-.036-.949.385-1.953.579-2.985.579-2.303 0-4.496-.994-6.016-2.727-1.448-1.649-2.138-3.831-1.938-6.029zm26.954-6.244c0-.214.011-.426.032-.632.242-2.384-.875-4.521-2.845-5.445-.992-.464-2.041-.756-3.119-.867-3.828-.4-7.484 1.376-9.527 4.629-1.058 1.684-2.619 2.867-4.395 3.333l-.457.12c-2.461.646-4.325 2.673-4.636 5.045-.231 1.761.278 3.455 1.434 4.772 1.141 1.3 2.785 2.045 4.513 2.045.773 0 1.525-.146 2.234-.433.986-.398 2.072-.599 3.226-.599 1.136 0 2.337.193 3.573.58.956.301 1.954.452 2.967.452 3.073 0 5.93-1.385 7.838-3.798 1.352-1.708 1.443-4.15.218-5.808-.681-.921-1.056-2.127-1.056-3.394zm18 18v-2.65c-4.739 3.69-17.159 5.65-29 5.65s-24.261-1.96-29-5.65v2.65c0 2.923 11.033 7 29 7s29-4.077 29-7zm0-16c0-5.039-1.306-9.94-3.77-14.284-.138.405-.23.832-.23 1.284h-2c0-2.206-1.794-4-4-4v-2c.84 0 1.618-.263 2.263-.707-5.485-5.913-13.174-9.293-21.263-9.293-5.04 0-9.941 1.306-14.284 3.77.405.138.832.23 1.284.23v2c-2.206 0-4 1.794-4 4h-2c0-.84-.263-1.618-.707-2.262-5.913 5.484-9.293 13.173-9.293 21.262v6.63c3.288-2.551 9.842-3.909 13.563-4.502.939-2.356 3.016-4.243 5.62-4.925l.457-.12c1.282-.336 2.421-1.211 3.208-2.463 2.451-3.901 6.831-6.028 11.427-5.555 1.3.136 2.565.487 3.76 1.046 2.751 1.29 4.315 4.218 3.987 7.459-.015.141-.022.284-.022.43 0 .842.236 1.625.665 2.206.404.547.698 1.156.905 1.792 3.994.588 11.004 1.953 14.431 4.614v-6.612zm-32-27h-2v2h2zm-2 6h2v-2h-2zm2-2h2v-2h-2zm-4-2v2h2v-2zm-20-12h-2v2h2zm-2 6h2v-2h-2zm4-2v-2h-2v2zm-4-2h-2v2h2zm51-2v2h2v-2zm0 6h2v-2h-2zm4-2v-2h-2v2zm-6-2v2h2v-2zm-40 26h-2v2h2zm-2 6h2v-2h-2zm2-2h2v-2h-2zm-4-2v2h2v-2zm37.461-14.071c.657.421 1.304.88 1.923 1.364l1.232-1.576c-.668-.522-1.367-1.018-2.077-1.472zm-.858-2.813c-3.592-1.9-7.483-2.942-11.564-3.097l-.076 1.998c3.779.144 7.381 1.108 10.706 2.866zm12.961 34.78-.956-1.756c-.513.279-1.169.564-1.949.847l.682 1.881c.874-.318 1.623-.645 2.223-.972zm-4.288 1.636-.552-1.922c-2.256.647-6.136 1.522-11.811 2.018l.174 1.992c5.834-.509 9.849-1.416 12.189-2.088zm-25.276-10.532c-1.654 0-3 1.346-3 3s1.346 3 3 3v-2c-.551 0-1-.448-1-1s.449-1 1-1 1 .448 1 1h2c0-1.654-1.346-3-3-3zm10-6c0 .552-.449 1-1 1s-1-.448-1-1 .449-1 1-1v-2c-1.654 0-3 1.346-3 3s1.346 3 3 3 3-1.346 3-3zm-3.447 10.895 2 1 .895-1.789-2-1zm-15.26-1.188 1 1 1.414-1.414-1-1zm20-1.414 1.414 1.414 1-1-1.414-1.414zm-10.74-6.398 2 1 .895-1.789-2-1z" fill="url(#SVGID_1_)"/></svg>