<svg id="Layer_5" enable-background="new 0 0 64 64" height="512" viewBox="0 0 64 64" width="512" xmlns="http://www.w3.org/2000/svg" xmlns:xlink="http://www.w3.org/1999/xlink"><linearGradient id="SVGID_1_" gradientUnits="userSpaceOnUse" x1="32" x2="32" y1="56" y2="8"><stop offset="0" stop-color="#9f2fff"/><stop offset="1" stop-color="#0bb1d3"/></linearGradient><path d="m46 24c0-5.514-4.486-10-10-10s-10 4.486-10 10 4.486 10 10 10 10-4.486 10-10zm-11.462 5h2.924c-.479 1.977-1.149 3-1.462 3s-.983-1.023-1.462-3zm1.462-13c.312 0 .983 1.023 1.462 3h-2.924c.479-1.977 1.15-3 1.462-3zm1.819 5c.077.614.134 1.277.161 2h-3.961c.027-.723.085-1.386.161-2zm6.112 4c-.088.698-.263 1.369-.52 2h-3.579c.074-.657.125-1.327.149-2zm0-2h-3.95c-.024-.673-.075-1.343-.149-2h3.579c.256.631.432 1.302.52 2zm-11.912 0h-3.95c.088-.698.263-1.369.52-2h3.579c-.074.657-.125 1.327-.149 2zm-3.95 2h3.95c.024.673.075 1.343.149 2h-3.579c-.256-.631-.432-1.302-.52-2zm5.95 0h3.961c-.027.723-.085 1.386-.161 2h-3.639c-.076-.614-.134-1.277-.161-2zm4.745 6.498c.312-.727.56-1.579.752-2.498h2.719c-.901 1.121-2.098 1.99-3.471 2.498zm3.471-12.498h-2.719c-.192-.919-.44-1.771-.752-2.498 1.373.508 2.57 1.377 3.471 2.498zm-8.999-2.498c-.312.727-.56 1.579-.752 2.498h-2.719c.901-1.121 2.098-1.99 3.471-2.498zm-3.471 12.498h2.719c.192.919.44 1.771.752 2.498-1.373-.508-2.57-1.377-3.471-2.498zm28.235-17h-14.826c-2.101-1.261-4.55-2-7.174-2s-5.073.739-7.174 2h-8.046l-.999-4h-7.562l-.999 4h-1.553l-4 3h-4.667v8h4.667l4 3h1.333v4h12.37c2.122 4.448 6.513 7.6 11.672 7.952.201 2.476 1.175 4.838 2.802 6.736l9.696 11.312h2.66l12.8-5.333v-4.667l-3.517-12.45c-.321-1.122-.483-2.282-.483-3.447 0-2.42.832-4.793 2.344-6.681l1.656-2.071v-4.351c0-2.757-2.243-5-5-5zm-5 8v-2h8v2zm-30.41 0h-7.59v-2h8.37c-.307.643-.573 1.308-.78 2zm1.937-4h-11.527v6h9.16c-.095.655-.16 1.319-.16 2h-11v-10h15.221c-.625.611-1.191 1.281-1.694 2zm-5.527 10v2h-2v-2zm-5.219-16h4.438l.501 2h-5.439zm-10.781 7h2v4h-2zm4-.5 2-1.5v8l-2-1.5zm6 9.5h2v2h-2zm8 2v-2h1.16c.098.683.236 1.352.43 2zm3-4c0-6.617 5.383-12 12-12s12 5.383 12 12-5.383 12-12 12-12-5.383-12-12zm24.82 5.607 1.394 9.411-2.312-.771-.818-5.728c.689-.894 1.277-1.867 1.736-2.912zm1.729 20.312-8.087-9.558c-.798-.942-1.269-2.103-1.403-3.321 1.586-.618 3.028-1.515 4.274-2.634l.764 5.348 4.445 1.482 1.209 8.158zm-13.5-11.972c.701-.052 1.387-.154 2.056-.306.232 1.472.858 2.864 1.829 4.011l7.702 9.103-2.151.941-7.122-8.31c-1.317-1.536-2.12-3.44-2.314-5.439zm12.751 16.053h-1.34l-.614-.716 13.154-5.755v1.805zm7.2-23.897c0 1.351.188 2.696.56 3.997l3.239 11.335-7.148 3.127-3.656-24.674c-.031-3.871-1.64-7.369-4.215-9.888h12.22c1.302 0 2.402.839 2.816 2h-9.816v6h8.919l-.138.172c-1.793 2.242-2.781 5.058-2.781 7.931z" fill="url(#SVGID_1_)"/></svg>